<?xml version="1.0" encoding="UTF-8" standalone="no"?>
<!-- Generator: Adobe Illustrator 12.0.0, SVG Export Plug-In . SVG Version: 6.00 Build 51448)  -->

<svg
   xmlns:dc="http://purl.org/dc/elements/1.1/"
   xmlns:cc="http://creativecommons.org/ns#"
   xmlns:rdf="http://www.w3.org/1999/02/22-rdf-syntax-ns#"
   xmlns:svg="http://www.w3.org/2000/svg"
   xmlns="http://www.w3.org/2000/svg"
   xmlns:sodipodi="http://sodipodi.sourceforge.net/DTD/sodipodi-0.dtd"
   xmlns:inkscape="http://www.inkscape.org/namespaces/inkscape"
   version="1.1"
   id="Ebene_1"
   width="73.302002"
   height="73.113998"
   viewBox="0 0 73.302003 73.113999"
   overflow="visible"
   enable-background="new 0 0 161.116 96.724"
   xml:space="preserve"
   inkscape:version="0.91 r13725"
   sodipodi:docname="blitzmaxng_logo.svg"
   style="overflow:visible"><metadata
     id="metadata3548"><rdf:RDF><cc:Work
         rdf:about=""><dc:format>image/svg+xml</dc:format><dc:type
           rdf:resource="http://purl.org/dc/dcmitype/StillImage" /><dc:title /></cc:Work></rdf:RDF></metadata><defs
     id="defs3546" /><sodipodi:namedview
     pagecolor="#ffffff"
     bordercolor="#666666"
     borderopacity="1"
     objecttolerance="10"
     gridtolerance="10"
     guidetolerance="10"
     inkscape:pageopacity="0"
     inkscape:pageshadow="2"
     inkscape:window-width="2560"
     inkscape:window-height="1395"
     id="namedview3544"
     showgrid="false"
     inkscape:zoom="2.5147203"
     inkscape:cx="-14.570245"
     inkscape:cy="-51.417152"
     inkscape:window-x="0"
     inkscape:window-y="1"
     inkscape:window-maximized="1"
     inkscape:current-layer="Ebene_1"
     fit-margin-top="0"
     fit-margin-left="0"
     fit-margin-right="0"
     fit-margin-bottom="0" /><g
     id="g3536"
     transform="translate(-1.124439,-0.942463)" /><g
     id="g3540"
     transform="translate(-87.814,-23.609)"
     style="fill:#000000"><path
       d="m 95.056,89.67 c 0,0 -1.213,-5.351 4.93,-11.365 0,0 -12.268,3.104 -9.652,16.088 12.984,2.615 16.088,-9.652 16.088,-9.652 -6.016,6.142 -11.366,4.929 -11.366,4.929 z m 66.06,-66.061 c 0,0 -36.136,1.761 -44.287,26.496 0,0 -9.418,-1.747 -16.844,5.678 -7.424,7.425 -12.171,20.003 -12.171,20.003 0,0 10.729,-9.749 15.389,-7.134 4.534,2.545 0,9.652 0,9.652 l 3.218,3.218 c 0,0 6.464,-4.108 9.652,0 3.178,4.097 -7.321,15.201 -7.321,15.201 0,0 12.766,-4.56 20.19,-11.983 7.425,-7.426 5.659,-16.864 5.659,-16.864 23.297,-7.392 26.515,-44.267 26.515,-44.267 z m -31.041,36.542 -8.181,3.165 2.639,2.085 -6.855,2.079 1.46,1.004 -5.014,0.009 1.826,-2.779 1.248,1.313 4.585,-1.917 -3.254,-2.334 8.087,-2.832 -4.48,-2.693 9.249,-5.368 3.215,3.032 -8.278,2.652 3.753,2.584 z m 8.28,-19.661 c 0,-3.249 2.647,-5.883 5.913,-5.883 3.266,0 5.914,2.634 5.914,5.883 0,3.25 -2.648,5.884 -5.914,5.884 -3.266,0 -5.913,-2.634 -5.913,-5.884 z M 98.539,86.123 c 5.736,1.155 7.107,-4.265 7.107,-4.265 -2.657,2.715 -4.628,1.792 -4.628,1.792 0,0 -0.93,-1.978 1.785,-4.635 0.001,0.001 -5.419,1.372 -4.264,7.108 z"
       id="path3542"
       inkscape:connector-curvature="0"
       style="clip-rule:evenodd;fill-rule:evenodd;fill:#000000" /></g></svg>