<?xml version="1.0" encoding="iso-8859-1"?>
<!-- Generator: Adobe Illustrator 19.0.0, SVG Export Plug-In . SVG Version: 6.00 Build 0)  -->
<svg version="1.1" id="Capa_1" xmlns="http://www.w3.org/2000/svg" xmlns:xlink="http://www.w3.org/1999/xlink" x="0px" y="0px"
	 viewBox="0 0 512 512" style="enable-background:new 0 0 512 512;" xml:space="preserve">
<g>
	<g>
		<g>
			<path d="M437.333,64H352c-5.896,0-10.667,4.771-10.667,10.667v7.548c-7.564-4.48-11.762-12.253-11.792-12.319
				C327.729,66.281,324.042,64,320,64H192c-4.042,0-7.729,2.281-9.542,5.896c-3.194,6.384-7.656,10.034-11.792,12.23v-7.46
				C170.667,68.771,165.896,64,160,64H74.667C33.5,64,0,97.5,0,138.667v234.667C0,414.5,33.5,448,74.667,448H160h192h85.333
				C478.5,448,512,414.5,512,373.333V138.667C512,97.5,478.5,64,437.333,64z M149.333,426.667H74.667
				c-29.417,0-53.333-23.927-53.333-53.333V138.667c0-29.406,23.917-53.333,53.333-53.333h74.667V426.667z M341.333,426.667H170.667
				V104.923c8.137-2.221,19.237-7.341,27.458-19.59h116c4.59,6.451,13.628,16.211,27.208,19.829V426.667z M490.667,373.333
				c0,29.406-23.917,53.333-53.333,53.333h-74.667V85.333h74.667c29.417,0,53.333,23.927,53.333,53.333V373.333z"/>
			<path d="M42.667,213.333c0,23.531,19.146,42.667,42.667,42.667C108.854,256,128,236.865,128,213.333
				s-19.146-42.667-42.667-42.667C61.813,170.667,42.667,189.802,42.667,213.333z M85.333,192c11.771,0,21.333,9.573,21.333,21.333
				c0,11.76-9.563,21.333-21.333,21.333c-11.771,0-21.333-9.573-21.333-21.333C64,201.573,73.563,192,85.333,192z"/>
			<circle cx="85.333" cy="288" r="10.667"/>
			<circle cx="85.333" cy="330.667" r="10.667"/>
			<circle cx="106.667" cy="309.333" r="10.667"/>
			<circle cx="64" cy="309.333" r="10.667"/>
			<path d="M426.667,256C403.146,256,384,275.135,384,298.667s19.146,42.667,42.667,42.667s42.667-19.135,42.667-42.667
				S450.188,256,426.667,256z M426.667,320c-11.771,0-21.333-9.573-21.333-21.333c0-11.76,9.563-21.333,21.333-21.333
				S448,286.906,448,298.667C448,310.427,438.438,320,426.667,320z"/>
			<circle cx="426.667" cy="224" r="10.667"/>
			<circle cx="426.667" cy="181.333" r="10.667"/>
			<circle cx="405.333" cy="202.667" r="10.667"/>
			<circle cx="448" cy="202.667" r="10.667"/>
			<path d="M96,128h21.333c5.896,0,10.667-4.771,10.667-10.667c0-5.896-4.771-10.667-10.667-10.667H96
				c-5.896,0-10.667,4.771-10.667,10.667C85.333,123.229,90.104,128,96,128z"/>
			<path d="M394.667,128c0,5.896,4.771,10.667,10.667,10.667c5.896,0,10.667-4.771,10.667-10.667
				c5.896,0,10.667-4.771,10.667-10.667c0-5.896-4.771-10.667-10.667-10.667C416,100.771,411.229,96,405.333,96
				c-5.896,0-10.667,4.771-10.667,10.667c-5.896,0-10.667,4.771-10.667,10.667C384,123.229,388.771,128,394.667,128z"/>
		</g>
	</g>
</g>
<g>
</g>
<g>
</g>
<g>
</g>
<g>
</g>
<g>
</g>
<g>
</g>
<g>
</g>
<g>
</g>
<g>
</g>
<g>
</g>
<g>
</g>
<g>
</g>
<g>
</g>
<g>
</g>
<g>
</g>
</svg>
